# xmcd
#
# Track frame offsets:
#	150
#	12567
#	30524
#	43278
#	59883
#	70877
#	85029
#	101226
#	115431
#	127360
#
# Disc length: 1891 seconds
#
# Revision: 0
# Processed by: cddbd v1.5.2PL0 Copyright (c) Steve Scherf et al.
# Submitted via: EasyCDDAExtractor 4.6.0.1
#
DISCID=9a07610a
DTITLE=Ken Mellons
DYEAR=1994
DGENRE=Country
TTITLE0=Jukebox Junkie
TTITLE1=I Can Bring Her Back
TTITLE2=Lookin' In the Same Direction
TTITLE3=The Pleasure's All Mine
TTITLE4=Workin' For the Weekend
TTITLE5=Seven Lonely Days (Makes One Weak)
TTITLE6=Keepin' It Country
TTITLE7=Learnin' To Live Without You
TTITLE8=Honky Tonk Teachers
TTITLE9=Doctor Jesus
EXTD=Ken Mellons- Juke Box Junkie
EXTT0=
EXTT1=
EXTT2=
EXTT3=
EXTT4=
EXTT5=
EXTT6=
EXTT7=
EXTT8=
EXTT9=
PLAYORDER=
